<mxfile host="65bd71144e">
    <diagram id="3mpXa5Fgw8nXYZYERIyb" name="Page-1">
        <mxGraphModel dx="811" dy="426" grid="0" gridSize="10" guides="1" tooltips="1" connect="1" arrows="1" fold="1" page="1" pageScale="1" pageWidth="850" pageHeight="1100" background="#FFFFFF" math="0" shadow="0">
            <root>
                <mxCell id="0"/>
                <mxCell id="1" parent="0"/>
                <mxCell id="4" value="" style="swimlane;startSize=0;dashed=1;strokeWidth=1;strokeColor=#999999;fillColor=none;verticalAlign=middle;" vertex="1" parent="1">
                    <mxGeometry x="38" y="260" width="178" height="257" as="geometry">
                        <mxRectangle x="48" y="259" width="50" height="44" as="alternateBounds"/>
                    </mxGeometry>
                </mxCell>
                <mxCell id="22" value="&lt;font style=&quot;font-size: 9px;&quot; color=&quot;#333333&quot;&gt;&lt;i&gt;data.gov&lt;/i&gt;&lt;/font&gt;" style="text;html=1;strokeColor=none;fillColor=none;align=center;verticalAlign=middle;whiteSpace=wrap;rounded=0;strokeWidth=1;" vertex="1" parent="4">
                    <mxGeometry x="114.5" y="-3" width="66" height="20" as="geometry"/>
                </mxCell>
                <mxCell id="26" value="" style="verticalLabelPosition=bottom;html=1;verticalAlign=top;align=center;strokeColor=none;fillColor=#FF6666;shape=mxgraph.azure.cloud_services_configuration_file;pointerEvents=1;strokeWidth=1;fontSize=4;fontColor=#333333;fontFamily=Verdana;" vertex="1" parent="4">
                    <mxGeometry x="93" y="42" width="44.5" height="52" as="geometry"/>
                </mxCell>
                <mxCell id="27" value="" style="verticalLabelPosition=bottom;html=1;verticalAlign=top;align=center;shape=mxgraph.azure.code_file;pointerEvents=1;strokeWidth=1;fontSize=9;fillColor=#bac8d3;strokeColor=#23445d;" vertex="1" parent="4">
                    <mxGeometry x="119" y="202" width="23.5" height="21" as="geometry"/>
                </mxCell>
                <mxCell id="29" value="" style="sketch=0;aspect=fixed;pointerEvents=1;shadow=0;dashed=0;html=1;labelPosition=center;verticalLabelPosition=bottom;verticalAlign=top;align=center;shape=mxgraph.azure.file;strokeWidth=1;fontSize=9;fillColor=#bac8d3;strokeColor=#23445d;" vertex="1" parent="4">
                    <mxGeometry x="113" y="159" width="21.66" height="23.04" as="geometry"/>
                </mxCell>
                <mxCell id="30" value="" style="verticalLabelPosition=bottom;html=1;verticalAlign=top;align=center;strokeColor=none;fillColor=#FF6666;shape=mxgraph.azure.cloud_services_configuration_file;pointerEvents=1;strokeWidth=0.5;fontSize=9;fontColor=#333333;" vertex="1" parent="4">
                    <mxGeometry x="99" y="104" width="43.5" height="46" as="geometry"/>
                </mxCell>
                <mxCell id="44" value="&lt;font color=&quot;#333333&quot; style=&quot;font-size: 7px;&quot;&gt;API&lt;/font&gt;" style="text;html=1;strokeColor=#FF6666;fillColor=none;align=center;verticalAlign=middle;whiteSpace=wrap;rounded=1;strokeWidth=1;fontSize=7;" vertex="1" parent="4">
                    <mxGeometry x="148" y="114" width="30" height="13" as="geometry"/>
                </mxCell>
                <mxCell id="48" value="&lt;font color=&quot;#333333&quot; style=&quot;font-size: 7px;&quot;&gt;API&lt;/font&gt;" style="text;html=1;strokeColor=#FF6666;fillColor=none;align=center;verticalAlign=middle;whiteSpace=wrap;rounded=1;strokeWidth=1;fontSize=7;" vertex="1" parent="4">
                    <mxGeometry x="148" y="61" width="30" height="13" as="geometry"/>
                </mxCell>
                <mxCell id="162" value="&lt;font color=&quot;#333333&quot; style=&quot;font-size: 7px;&quot;&gt;API&lt;/font&gt;" style="text;html=1;strokeColor=#B3B3B3;fillColor=none;align=center;verticalAlign=middle;whiteSpace=wrap;rounded=1;strokeWidth=1;fontSize=7;" vertex="1" parent="4">
                    <mxGeometry x="148" y="156" width="30" height="13" as="geometry"/>
                </mxCell>
                <mxCell id="163" value="&lt;font color=&quot;#333333&quot; style=&quot;font-size: 7px;&quot;&gt;API&lt;/font&gt;" style="text;html=1;strokeColor=#B3B3B3;fillColor=none;align=center;verticalAlign=middle;whiteSpace=wrap;rounded=1;strokeWidth=1;fontSize=7;" vertex="1" parent="4">
                    <mxGeometry x="148" y="206" width="30" height="13" as="geometry"/>
                </mxCell>
                <mxCell id="166" value="&lt;font&gt;DataSet1 - Crime Incidents&lt;/font&gt;" style="text;html=1;strokeColor=none;fillColor=none;align=center;verticalAlign=middle;whiteSpace=wrap;rounded=0;strokeWidth=1;fontSize=7;fontColor=#FF3333;fontStyle=1" vertex="1" parent="4">
                    <mxGeometry x="32" y="52" width="61" height="14" as="geometry"/>
                </mxCell>
                <mxCell id="179" value="&lt;font&gt;DataSet2 - Arrests&lt;/font&gt;" style="text;html=1;strokeColor=none;fillColor=none;align=center;verticalAlign=middle;whiteSpace=wrap;rounded=0;strokeWidth=1;fontSize=7;fontColor=#FF3333;fontStyle=1" vertex="1" parent="4">
                    <mxGeometry x="27" y="114" width="66" height="19" as="geometry"/>
                </mxCell>
                <mxCell id="180" value="&lt;font color=&quot;#333333&quot;&gt;DataSet3 - SocioEconomic&amp;nbsp; indicators&lt;/font&gt;" style="text;html=1;strokeColor=none;fillColor=none;align=center;verticalAlign=middle;whiteSpace=wrap;rounded=0;strokeWidth=1;fontSize=7;fontStyle=1" vertex="1" parent="4">
                    <mxGeometry x="15" y="162.52" width="94" height="16" as="geometry"/>
                </mxCell>
                <mxCell id="181" value="&lt;font color=&quot;#333333&quot;&gt;DataSet4 -&amp;nbsp; geospatial data&lt;br&gt;disadvantaged areas&lt;br&gt;&lt;/font&gt;" style="text;html=1;strokeColor=none;fillColor=none;align=center;verticalAlign=middle;whiteSpace=wrap;rounded=0;strokeWidth=1;fontSize=7;fontStyle=1" vertex="1" parent="4">
                    <mxGeometry x="25" y="204.5" width="94" height="16" as="geometry"/>
                </mxCell>
                <mxCell id="5" value="" style="swimlane;startSize=0;strokeColor=#808080;dashed=1;strokeWidth=1;" vertex="1" parent="1">
                    <mxGeometry x="432" y="501" width="339" height="83" as="geometry"/>
                </mxCell>
                <mxCell id="9" value="" style="strokeWidth=1;html=1;shape=mxgraph.flowchart.database;whiteSpace=wrap;fillColor=none;strokeColor=#007FFF;" vertex="1" parent="5">
                    <mxGeometry x="44" y="11" width="60" height="60" as="geometry"/>
                </mxCell>
                <mxCell id="8" value="" style="verticalLabelPosition=bottom;html=1;verticalAlign=top;align=center;strokeColor=none;fillColor=#007FFF;shape=mxgraph.azure.storage_blob;" vertex="1" parent="5">
                    <mxGeometry x="56" y="35" width="36" height="29" as="geometry"/>
                </mxCell>
                <mxCell id="10" value="" style="strokeWidth=1;html=1;shape=mxgraph.flowchart.database;whiteSpace=wrap;fillColor=none;strokeColor=#007FFF;" vertex="1" parent="5">
                    <mxGeometry x="122" y="11" width="60" height="60" as="geometry"/>
                </mxCell>
                <mxCell id="11" value="" style="verticalLabelPosition=bottom;html=1;verticalAlign=top;align=center;strokeColor=none;fillColor=#007FFF;shape=mxgraph.azure.storage_blob;" vertex="1" parent="5">
                    <mxGeometry x="136.5" y="35" width="36" height="29" as="geometry"/>
                </mxCell>
                <mxCell id="12" value="" style="strokeWidth=1;html=1;shape=mxgraph.flowchart.database;whiteSpace=wrap;fillColor=none;strokeColor=#007FFF;" vertex="1" parent="5">
                    <mxGeometry x="207" y="11" width="60" height="60" as="geometry"/>
                </mxCell>
                <mxCell id="13" value="" style="verticalLabelPosition=bottom;html=1;verticalAlign=top;align=center;strokeColor=none;fillColor=#007FFF;shape=mxgraph.azure.storage_blob;" vertex="1" parent="5">
                    <mxGeometry x="219" y="35" width="36" height="29" as="geometry"/>
                </mxCell>
                <mxCell id="129" value="&lt;font color=&quot;#333333&quot;&gt;RAW&lt;/font&gt;" style="text;html=1;strokeColor=none;fillColor=none;align=center;verticalAlign=middle;whiteSpace=wrap;rounded=0;strokeWidth=1;fontSize=7;fontStyle=1" vertex="1" parent="5">
                    <mxGeometry x="55" y="15" width="37" height="14" as="geometry"/>
                </mxCell>
                <mxCell id="139" value="&lt;font color=&quot;#333333&quot;&gt;Clean/Enriched&lt;/font&gt;" style="text;html=1;strokeColor=none;fillColor=none;align=center;verticalAlign=middle;whiteSpace=wrap;rounded=0;strokeWidth=1;fontSize=7;fontStyle=1" vertex="1" parent="5">
                    <mxGeometry x="132.5" y="15" width="37" height="14" as="geometry"/>
                </mxCell>
                <mxCell id="141" value="&lt;font color=&quot;#333333&quot;&gt;Results&lt;/font&gt;" style="text;html=1;strokeColor=none;fillColor=none;align=center;verticalAlign=middle;whiteSpace=wrap;rounded=0;strokeWidth=1;fontSize=7;fontStyle=1" vertex="1" parent="5">
                    <mxGeometry x="218" y="15" width="37" height="14" as="geometry"/>
                </mxCell>
                <mxCell id="128" value="&lt;font color=&quot;#333333&quot;&gt;Azure Blob Storage&lt;/font&gt;" style="text;html=1;strokeColor=none;fillColor=none;align=center;verticalAlign=middle;whiteSpace=wrap;rounded=0;strokeWidth=1;fontSize=7;fontStyle=1" vertex="1" parent="5">
                    <mxGeometry x="128" y="69" width="79" height="17" as="geometry"/>
                </mxCell>
                <mxCell id="126" style="edgeStyle=orthogonalEdgeStyle;rounded=1;html=1;exitX=0.46;exitY=1.003;exitDx=0;exitDy=0;entryX=0.45;entryY=0.008;entryDx=0;entryDy=0;entryPerimeter=0;labelBorderColor=none;strokeColor=#666666;fontFamily=Verdana;fontSize=5;fontColor=#333333;exitPerimeter=0;strokeWidth=1;" edge="1" parent="1" source="21" target="9">
                    <mxGeometry relative="1" as="geometry"/>
                </mxCell>
                <mxCell id="21" value="" style="swimlane;startSize=0;strokeWidth=2;fillStyle=dashed;swimlaneFillColor=none;fillColor=#eeeeee;strokeColor=#808080;rounded=1;shadow=0;glass=0;sketch=1;curveFitting=1;jiggle=2;" vertex="1" parent="1">
                    <mxGeometry x="425" y="396.5" width="76" height="36" as="geometry">
                        <mxRectangle x="448" y="393" width="50" height="44" as="alternateBounds"/>
                    </mxGeometry>
                </mxCell>
                <mxCell id="123" value="&lt;font color=&quot;#333333&quot;&gt;INGESTION&lt;/font&gt;" style="text;html=1;strokeColor=none;fillColor=none;align=center;verticalAlign=middle;whiteSpace=wrap;rounded=0;strokeWidth=1;fontSize=7;fontStyle=1" vertex="1" parent="21">
                    <mxGeometry x="15" y="7.75" width="42" height="17" as="geometry"/>
                </mxCell>
                <mxCell id="120" style="edgeStyle=none;rounded=1;html=1;entryX=0;entryY=0.5;entryDx=0;entryDy=0;labelBorderColor=none;strokeColor=#808080;fontFamily=Verdana;fontSize=5;fontColor=#333333;" edge="1" parent="1" source="76" target="21">
                    <mxGeometry relative="1" as="geometry"/>
                </mxCell>
                <mxCell id="76" value="" style="verticalLabelPosition=bottom;sketch=0;aspect=fixed;html=1;verticalAlign=top;strokeColor=none;align=center;outlineConnect=0;shape=mxgraph.citrix.laptop_2;strokeWidth=1;fontFamily=Verdana;fontSize=5;fontColor=#333333;fillColor=#CC0000;" vertex="1" parent="1">
                    <mxGeometry x="353" y="396.5" width="52.97" height="39.5" as="geometry"/>
                </mxCell>
                <mxCell id="78" style="edgeStyle=none;html=1;fontFamily=Verdana;fontSize=5;fontColor=#333333;labelBorderColor=none;fillColor=none;strokeColor=#FF6666;rounded=1;exitX=1;exitY=0.25;exitDx=0;exitDy=0;strokeWidth=1.5;" edge="1" parent="1" source="48" target="76">
                    <mxGeometry relative="1" as="geometry">
                        <mxPoint x="257" y="345" as="sourcePoint"/>
                        <Array as="points">
                            <mxPoint x="261" y="355"/>
                        </Array>
                    </mxGeometry>
                </mxCell>
                <mxCell id="79" style="edgeStyle=none;html=1;fontFamily=Verdana;fontSize=5;fontColor=#333333;labelBorderColor=none;fillColor=none;strokeColor=#FF6666;rounded=1;strokeWidth=1.5;" edge="1" parent="1" source="44" target="76">
                    <mxGeometry relative="1" as="geometry">
                        <mxPoint x="202" y="342.5000000000001" as="sourcePoint"/>
                        <mxPoint x="324.10132352941173" y="404.75" as="targetPoint"/>
                        <Array as="points">
                            <mxPoint x="270" y="381"/>
                        </Array>
                    </mxGeometry>
                </mxCell>
                <mxCell id="80" style="edgeStyle=none;html=1;fontFamily=Verdana;fontSize=5;fontColor=#333333;labelBorderColor=none;fillColor=none;strokeColor=#808080;rounded=1;exitX=1;exitY=0.5;exitDx=0;exitDy=0;dashed=1;strokeWidth=1.5;" edge="1" parent="1" source="162" target="76">
                    <mxGeometry relative="1" as="geometry">
                        <mxPoint x="224.5" y="421.5" as="sourcePoint"/>
                        <mxPoint x="303" y="410" as="targetPoint"/>
                        <Array as="points">
                            <mxPoint x="244" y="406"/>
                        </Array>
                    </mxGeometry>
                </mxCell>
                <mxCell id="81" style="edgeStyle=none;html=1;fontFamily=Verdana;fontSize=5;fontColor=#333333;labelBorderColor=none;fillColor=none;strokeColor=#808080;rounded=1;exitX=1;exitY=0.5;exitDx=0;exitDy=0;dashed=1;strokeWidth=1.5;" edge="1" parent="1" source="163" target="76">
                    <mxGeometry relative="1" as="geometry">
                        <mxPoint x="224.5" y="476.25" as="sourcePoint"/>
                        <mxPoint x="324" y="422.1667616727989" as="targetPoint"/>
                        <Array as="points">
                            <mxPoint x="249" y="437"/>
                        </Array>
                    </mxGeometry>
                </mxCell>
                <mxCell id="106" value="&lt;font&gt;Weekly Batch Ingest&lt;/font&gt;" style="text;html=1;strokeColor=none;fillColor=none;align=center;verticalAlign=middle;whiteSpace=wrap;rounded=0;strokeWidth=1;fontSize=7;fontColor=#FF3333;fontStyle=1" vertex="1" parent="1">
                    <mxGeometry x="285" y="355.5" width="60" height="13" as="geometry"/>
                </mxCell>
                <mxCell id="107" value="" style="sketch=0;html=1;aspect=fixed;strokeColor=none;shadow=0;align=center;verticalAlign=top;fillColor=#FF6666;shape=mxgraph.gcp2.arrow_cycle;strokeWidth=1;fontFamily=Verdana;fontSize=5;fontColor=#333333;" vertex="1" parent="1">
                    <mxGeometry x="272" y="340.5" width="15.79" height="15" as="geometry"/>
                </mxCell>
                <mxCell id="140" style="edgeStyle=orthogonalEdgeStyle;rounded=1;html=1;exitX=0.461;exitY=0.972;exitDx=0;exitDy=0;entryX=0.5;entryY=0;entryDx=0;entryDy=0;entryPerimeter=0;labelBorderColor=none;strokeColor=#666666;fontFamily=Verdana;fontSize=5;fontColor=#333333;exitPerimeter=0;strokeWidth=1;" edge="1" parent="1" source="121" target="10">
                    <mxGeometry relative="1" as="geometry"/>
                </mxCell>
                <mxCell id="121" value="" style="swimlane;startSize=0;strokeWidth=2;fillStyle=dashed;swimlaneFillColor=none;fillColor=#eeeeee;strokeColor=#808080;rounded=1;shadow=0;glass=0;sketch=1;curveFitting=1;jiggle=2;" vertex="1" parent="1">
                    <mxGeometry x="554" y="394.75" width="76" height="36" as="geometry">
                        <mxRectangle x="448" y="393" width="50" height="44" as="alternateBounds"/>
                    </mxGeometry>
                </mxCell>
                <mxCell id="124" value="&lt;font color=&quot;#333333&quot;&gt;TRANSFORM&lt;/font&gt;" style="text;html=1;strokeColor=none;fillColor=none;align=center;verticalAlign=middle;whiteSpace=wrap;rounded=0;strokeWidth=1;fontSize=7;fontStyle=1" vertex="1" parent="121">
                    <mxGeometry x="20" y="9.5" width="42" height="17" as="geometry"/>
                </mxCell>
                <mxCell id="142" style="edgeStyle=orthogonalEdgeStyle;rounded=1;html=1;entryX=0.5;entryY=0;entryDx=0;entryDy=0;entryPerimeter=0;labelBorderColor=none;strokeColor=#666666;fontFamily=Verdana;fontSize=5;fontColor=#333333;exitX=0.5;exitY=1;exitDx=0;exitDy=0;strokeWidth=1;" edge="1" parent="1" source="122" target="12">
                    <mxGeometry relative="1" as="geometry">
                        <mxPoint x="696" y="430" as="sourcePoint"/>
                    </mxGeometry>
                </mxCell>
                <mxCell id="183" style="edgeStyle=orthogonalEdgeStyle;rounded=1;html=1;exitX=0.5;exitY=0;exitDx=0;exitDy=0;labelBorderColor=none;strokeColor=#006600;strokeWidth=1;fontFamily=Verdana;fontSize=5;fontColor=#FF3333;startArrow=baseDash;startFill=0;endArrow=classicThin;endFill=1;" edge="1" parent="1" source="122">
                    <mxGeometry relative="1" as="geometry">
                        <mxPoint x="724.8823529411766" y="318.021094827091" as="targetPoint"/>
                    </mxGeometry>
                </mxCell>
                <mxCell id="122" value="" style="swimlane;startSize=0;strokeWidth=2;fillStyle=dashed;swimlaneFillColor=none;fillColor=#eeeeee;strokeColor=#808080;rounded=1;shadow=0;glass=0;sketch=1;curveFitting=1;jiggle=2;" vertex="1" parent="1">
                    <mxGeometry x="687" y="394.75" width="76" height="36" as="geometry">
                        <mxRectangle x="448" y="393" width="50" height="44" as="alternateBounds"/>
                    </mxGeometry>
                </mxCell>
                <mxCell id="125" value="&lt;font color=&quot;#333333&quot;&gt;ANALYSIS&lt;/font&gt;" style="text;html=1;strokeColor=none;fillColor=none;align=center;verticalAlign=middle;whiteSpace=wrap;rounded=0;strokeWidth=1;fontSize=7;fontStyle=1" vertex="1" parent="122">
                    <mxGeometry x="19" y="6.5" width="42" height="17" as="geometry"/>
                </mxCell>
                <mxCell id="143" style="edgeStyle=entityRelationEdgeStyle;rounded=1;html=1;exitX=0.5;exitY=0;exitDx=0;exitDy=0;exitPerimeter=0;entryX=0;entryY=0.5;entryDx=0;entryDy=0;labelBorderColor=none;strokeColor=#006600;fontFamily=Verdana;fontSize=5;fontColor=#333333;strokeWidth=1;" edge="1" parent="1" source="9" target="121">
                    <mxGeometry relative="1" as="geometry"/>
                </mxCell>
                <mxCell id="144" style="edgeStyle=entityRelationEdgeStyle;rounded=1;html=1;exitX=0.5;exitY=0;exitDx=0;exitDy=0;exitPerimeter=0;entryX=0;entryY=0.5;entryDx=0;entryDy=0;labelBorderColor=none;strokeColor=#006600;fontFamily=Verdana;fontSize=5;fontColor=#333333;strokeWidth=1;" edge="1" parent="1" source="10" target="122">
                    <mxGeometry relative="1" as="geometry"/>
                </mxCell>
                <mxCell id="158" style="edgeStyle=orthogonalEdgeStyle;rounded=1;html=1;exitX=0.5;exitY=0;exitDx=0;exitDy=0;labelBorderColor=none;strokeColor=#666666;strokeWidth=1;fontFamily=Verdana;fontSize=5;fontColor=#333333;endArrow=classicThin;endFill=1;startArrow=classicThin;startFill=1;" edge="1" parent="1" source="155" target="76">
                    <mxGeometry relative="1" as="geometry">
                        <Array as="points">
                            <mxPoint x="341" y="468"/>
                            <mxPoint x="370" y="468"/>
                        </Array>
                    </mxGeometry>
                </mxCell>
                <mxCell id="155" value="" style="swimlane;startSize=0;rounded=1;shadow=0;glass=0;sketch=0;fillStyle=auto;strokeColor=#999999;strokeWidth=1;fontFamily=Verdana;fontSize=5;fontColor=#333333;fillColor=#FF9933;gradientColor=none;dashed=1;" vertex="1" parent="1">
                    <mxGeometry x="268.48" y="501" width="144" height="80" as="geometry"/>
                </mxCell>
                <mxCell id="154" value="" style="verticalLabelPosition=bottom;html=1;verticalAlign=top;align=center;strokeColor=none;fillColor=#CCCCCC;shape=mxgraph.azure.git_repository;rounded=1;shadow=0;glass=0;sketch=0;fillStyle=auto;strokeWidth=1;fontFamily=Verdana;fontSize=5;fontColor=#333333;" vertex="1" parent="155">
                    <mxGeometry x="87" y="16" width="50" height="50" as="geometry"/>
                </mxCell>
                <mxCell id="153" value="" style="verticalLabelPosition=bottom;html=1;verticalAlign=top;align=center;shape=mxgraph.azure.github_code;pointerEvents=1;rounded=1;shadow=0;glass=0;fillStyle=auto;strokeWidth=1;fontFamily=Verdana;fontSize=5;fillColor=#CCCCCC;" vertex="1" parent="155">
                    <mxGeometry x="19" y="16" width="50" height="50" as="geometry"/>
                </mxCell>
                <mxCell id="157" value="&lt;font color=&quot;#333333&quot;&gt;Git/GitHub&lt;/font&gt;" style="text;html=1;strokeColor=none;fillColor=none;align=center;verticalAlign=middle;whiteSpace=wrap;rounded=0;strokeWidth=1;fontSize=7;fontStyle=1" vertex="1" parent="155">
                    <mxGeometry x="59" y="60" width="37" height="14" as="geometry"/>
                </mxCell>
            </root>
        </mxGraphModel>
    </diagram>
</mxfile>